<?xml version="1.0" encoding="UTF-8" standalone="no"?>
<svg width="18px" height="20px" viewBox="0 0 18 20" version="1.1" xmlns="http://www.w3.org/2000/svg" xmlns:xlink="http://www.w3.org/1999/xlink" xmlns:sketch="http://www.bohemiancoding.com/sketch/ns">
    <!-- Generator: Sketch 3.3.3 (12072) - http://www.bohemiancoding.com/sketch -->
    <title>ic_insert_invitation_black_48px</title>
    <desc>Created with Sketch.</desc>
    <defs></defs>
    <g id="Page-1" stroke="none" stroke-width="1" fill="none" fill-rule="evenodd" sketch:type="MSPage">
        <g id="ic_insert_invitation_black_48px" sketch:type="MSLayerGroup" transform="translate(-2.000000, 0.000000)">
            <path d="M15.5833333,11 L11,11 L11,15.5833333 L15.5833333,15.5833333 L15.5833333,11 L15.5833333,11 Z M14.6666667,0.916666667 L14.6666667,2.75 L7.33333333,2.75 L7.33333333,0.916666667 L5.5,0.916666667 L5.5,2.75 L4.58333333,2.75 C3.56583333,2.75 2.75916667,3.575 2.75916667,4.58333333 L2.75,17.4166667 C2.75,18.425 3.56583333,19.25 4.58333333,19.25 L17.4166667,19.25 C18.425,19.25 19.25,18.425 19.25,17.4166667 L19.25,4.58333333 C19.25,3.575 18.425,2.75 17.4166667,2.75 L16.5,2.75 L16.5,0.916666667 L14.6666667,0.916666667 L14.6666667,0.916666667 Z M17.4166667,17.4166667 L4.58333333,17.4166667 L4.58333333,7.33333333 L17.4166667,7.33333333 L17.4166667,17.4166667 L17.4166667,17.4166667 Z" id="Shape" stroke="#FFFFFF" sketch:type="MSShapeGroup"></path>
            <path d="M0,0 L22,0 L22,22 L0,22 L0,0 Z" id="Shape" sketch:type="MSShapeGroup"></path>
        </g>
    </g>
</svg>