<?xml version="1.0" encoding="UTF-8" standalone="no"?>
<svg width="21px" height="21px" viewBox="0 0 21 21" version="1.1" xmlns="http://www.w3.org/2000/svg" xmlns:xlink="http://www.w3.org/1999/xlink" xmlns:sketch="http://www.bohemiancoding.com/sketch/ns">
    <!-- Generator: Sketch 3.3.3 (12072) - http://www.bohemiancoding.com/sketch -->
    <title>ic_person_black_48px</title>
    <desc>Created with Sketch.</desc>
    <defs></defs>
    <g id="Page-1" stroke="none" stroke-width="1" fill="none" fill-rule="evenodd" sketch:type="MSPage">
        <g id="ic_person_black_48px" sketch:type="MSLayerGroup" transform="translate(-4.154617, -4.300000)">
            <path d="M15,15 C17.7625,15 20,12.7625 20,10 C20,7.2375 17.7625,5 15,5 C12.2375,5 10,7.2375 10,10 C10,12.7625 12.2375,15 15,15 L15,15 Z M15,17.5 C11.6625,17.5 5,19.175 5,22.5 L5,25 L25,25 L25,22.5 C25,19.175 18.3375,17.5 15,17.5 L15,17.5 Z" id="Shape" fill="#000000" sketch:type="MSShapeGroup"></path>
            <path d="M0,0 L30,0 L30,30 L0,30 L0,0 Z" id="Shape" sketch:type="MSShapeGroup"></path>
        </g>
    </g>
</svg>