<?xml version="1.0" encoding="UTF-8" standalone="no"?>
<svg width="58px" height="58px" viewBox="0 0 58 58" version="1.1" xmlns="http://www.w3.org/2000/svg" xmlns:xlink="http://www.w3.org/1999/xlink" xmlns:sketch="http://www.bohemiancoding.com/sketch/ns">
    <!-- Generator: Sketch 3.3.3 (12072) - http://www.bohemiancoding.com/sketch -->
    <title>Oval 10 + ic_person_add_white_48px</title>
    <desc>Created with Sketch.</desc>
    <defs></defs>
    <g id="Page-1" stroke="none" stroke-width="1" fill="none" fill-rule="evenodd" sketch:type="MSPage">
        <g id="Oval-10-+-ic_person_add_white_48px" sketch:type="MSLayerGroup">
            <circle id="Oval-10" fill="#9B9B9B" sketch:type="MSShapeGroup" cx="29" cy="29" r="29"></circle>
            <g id="ic_person_add_white_48px" transform="translate(8.000000, 9.000000)" sketch:type="MSShapeGroup">
                <path d="M0,0 L38,0 L38,38 L0,38 L0,0 Z" id="Shape"></path>
                <path d="M23.75,19 C27.2491667,19 30.0833333,16.1658333 30.0833333,12.6666667 C30.0833333,9.1675 27.2491667,6.33333333 23.75,6.33333333 C20.2508333,6.33333333 17.4166667,9.1675 17.4166667,12.6666667 C17.4166667,16.1658333 20.2508333,19 23.75,19 L23.75,19 Z M9.5,15.8333333 L9.5,11.0833333 L6.33333333,11.0833333 L6.33333333,15.8333333 L1.58333333,15.8333333 L1.58333333,19 L6.33333333,19 L6.33333333,23.75 L9.5,23.75 L9.5,19 L14.25,19 L14.25,15.8333333 L9.5,15.8333333 L9.5,15.8333333 Z M23.75,22.1666667 C19.5225,22.1666667 11.0833333,24.2883333 11.0833333,28.5 L11.0833333,31.6666667 L36.4166667,31.6666667 L36.4166667,28.5 C36.4166667,24.2883333 27.9775,22.1666667 23.75,22.1666667 L23.75,22.1666667 Z" id="Shape" fill="#FFFFFF"></path>
            </g>
        </g>
    </g>
</svg>