<?xml version="1.0" encoding="UTF-8" standalone="no"?>
<svg width="23px" height="26px" viewBox="0 0 23 26" version="1.1" xmlns="http://www.w3.org/2000/svg" xmlns:xlink="http://www.w3.org/1999/xlink" xmlns:sketch="http://www.bohemiancoding.com/sketch/ns">
    <!-- Generator: Sketch 3.3.3 (12072) - http://www.bohemiancoding.com/sketch -->
    <title>Shape</title>
    <desc>Created with Sketch.</desc>
    <defs></defs>
    <g id="Page-1" stroke="none" stroke-width="1" fill="none" fill-rule="evenodd" sketch:type="MSPage">
        <path d="M17.8888889,14.3814286 L11.5,14.3814286 L11.5,20.7885714 L17.8888889,20.7885714 L17.8888889,14.3814286 L17.8888889,14.3814286 Z M16.6111111,0.285714286 L16.6111111,2.84857143 L6.38888889,2.84857143 L6.38888889,0.285714286 L3.83333333,0.285714286 L3.83333333,2.84857143 L2.55555556,2.84857143 C1.13722222,2.84857143 0.0127777778,4.00185714 0.0127777778,5.41142857 L0,23.3514286 C0,24.761 1.13722222,25.9142857 2.55555556,25.9142857 L20.4444444,25.9142857 C21.85,25.9142857 23,24.761 23,23.3514286 L23,5.41142857 C23,4.00185714 21.85,2.84857143 20.4444444,2.84857143 L19.1666667,2.84857143 L19.1666667,0.285714286 L16.6111111,0.285714286 L16.6111111,0.285714286 Z M20.4444444,23.3514286 L2.55555556,23.3514286 L2.55555556,9.25571429 L20.4444444,9.25571429 L20.4444444,23.3514286 L20.4444444,23.3514286 Z" id="Shape" fill="#000000" sketch:type="MSShapeGroup"></path>
    </g>
</svg>